# xmcd CD database file
#
# Track frame offsets:
#	150
#	23072
#	45112
#	48397
#	66835
#	68792
#	87067
#	104607
#	124182
#	143747
#	166797
#	183700
#	202522
#	219712
#	239730
#	262705
#	282782
#	304230
#
# Disc length: 4389 seconds
#
# Revision: 2
# Processed by: cddbd v1.5.2PL0 Copyright (c) Steve Scherf et al.
# Submitted via: CDex 1.70beta2
#
DISCID=f8112312
DTITLE=Shahin and Sepehr - East West Highway
DYEAR=2000
DGENRE=New Age
TTITLE0=East West Highway
TTITLE1=Body and Soul
TTITLE2=Golestan Interlude
TTITLE3=Skyline Drive
TTITLE4=One Thousand and One Nights (prelude)
TTITLE5=One Thousand and One Nights
TTITLE6=October Moon
TTITLE7=Jakarta
TTITLE8=Old Passion Dance
TTITLE9=Lost Words
TTITLE10=Wild World remix (new bonus track)
TTITLE11=Yasmine
TTITLE12=Cante Kian
TTITLE13=Middle of the Night
TTITLE14=Melting Heart (new bonus track)
TTITLE15=The Last Goodbye
TTITLE16=Through Your Eyes
TTITLE17=Midnight at the Basilica
EXTD=YEAR: 2000
EXTT0=
EXTT1=
EXTT2=
EXTT3=
EXTT4=
EXTT5=
EXTT6=
EXTT7=
EXTT8=
EXTT9=
EXTT10=
EXTT11=
EXTT12=
EXTT13=
EXTT14=
EXTT15=
EXTT16=
EXTT17=
PLAYORDER=
